#!OML:ASF H:\SpeedWalk\Project 1\Capture day 2\Session 1\male.ASF
:FULLY-SPECIFIED
:DEGREES
209
root -7.847784 21.649160 -2.789835 0.165377 -0.473817 6.857169
lowerback 9.390091 -0.324657 -7.688137 
upperback -1.141836 -1.303692 0.348564 
thorax -6.320161 -0.360863 4.893489 
lowerneck -13.409493 0.325370 1.755403 
upperneck 13.290103 0.484960 -2.506229 
head 6.248932 0.118475 -1.041488 
rclavicle 0.000000 0.000000 
rhumerus -30.693327 -14.357087 -79.636043 
rradius 32.824913 
rwrist -3.405615 
rhand -13.083616 -10.043324 
rfingers 0.000000 
rthumb 13.012581 -39.617486 
lclavicle 0.000000 0.000000 
lhumerus -38.909906 0.993493 87.267149 
lradius 42.413710 
lwrist -9.689948 
lhand -8.050026 15.691962 
lfingers 0.000000 
lthumb 17.860708 44.891792 
rfemur -46.859842 -9.207368 15.576665 
rtibia 58.021238 
rfoot -7.256001 -7.269445 
rtoes 2.153886 
lfemur 6.005057 -4.864089 -33.972377 
ltibia 22.585034 
lfoot -24.291229 8.728199 
ltoes 2.401405 
210
root -7.853202 21.613917 -2.641469 0.047186 -0.462611 7.009077
lowerback 9.223471 -0.388162 -7.825788 
upperback -1.133901 -1.390398 0.326701 
thorax -6.202672 -0.404360 4.955732 
lowerneck -13.357419 0.323042 1.747856 
upperneck 13.385066 0.486076 -2.509542 
head 6.270299 0.118411 -1.041558 
rclavicle 0.000000 0.000000 
rhumerus -30.920303 -14.532284 -79.372219 
rradius 32.727902 
rwrist -3.417843 
rhand -13.092798 -10.116756 
rfingers 0.000000 
rthumb 13.003740 -39.691472 
lclavicle 0.000000 0.000000 
lhumerus -38.979347 1.045071 87.250167 
lradius 42.293157 
lwrist -9.752062 
lhand -8.009185 15.719916 
lfingers 0.000000 
lthumb 17.900005 44.916141 
rfemur -46.452282 -9.012868 15.399940 
rtibia 55.686523 
rfoot -5.340347 -7.123442 
rtoes 2.296884 
lfemur 6.960018 -4.667835 -34.146232 
ltibia 22.060330 
lfoot -24.495955 8.679490 
ltoes 2.139743 
211
root -7.858880 21.575129 -2.491724 -0.069845 -0.445826 7.163306
lowerback 9.042558 -0.451034 -7.959912 
upperback -1.122846 -1.474026 0.301359 
thorax -6.074011 -0.447315 5.010927 
lowerneck -13.308812 0.320104 1.742902 
upperneck 13.483122 0.486763 -2.518576 
head 6.293239 0.117764 -1.043943 
rclavicle 0.000000 0.000000 
rhumerus -31.155660 -14.697640 -79.108911 
rradius 32.643161 
rwrist -3.428571 
rhand -13.094322 -10.185605 
rfingers 0.000000 
rthumb 13.002271 -39.760393 
lclavicle 0.000000 0.000000 
lhumerus -39.053374 1.077286 87.239812 
lradius 42.195743 
lwrist -9.802347 
lhand -7.952666 15.753931 
lfingers 0.000000 
lthumb 17.954403 44.945141 
rfemur -46.005073 -8.814912 15.201277 
rtibia 53.383401 
rfoot -3.325587 -6.943520 
rtoes 2.337265 
lfemur 7.886508 -4.464507 -34.317450 
ltibia 21.604401 
lfoot -24.726350 8.635520 
ltoes 1.841323 
212
root -7.864762 21.532774 -2.340876 -0.184946 -0.424252 7.321124
lowerback 8.845280 -0.513700 -8.091695 
upperback -1.109090 -1.555019 0.272825 
thorax -5.933406 -0.489932 5.060050 
lowerneck -13.258094 0.316181 1.736812 
upperneck 13.579566 0.486730 -2.530027 
head 6.315298 0.116519 -1.046975 
rclavicle 0.000000 0.000000 
rhumerus -31.396458 -14.857005 -78.844009 
rradius 32.564455 
rwrist -3.425495 
rhand -13.080660 -10.233041 
rfingers 0.000000 
rthumb 13.015467 -39.806989 
lclavicle 0.000000 0.000000 
lhumerus -39.132952 1.089459 87.237744 
lradius 42.118980 
lwrist -9.843419 
lhand -7.880221 15.789196 
lfingers 0.000000 
lthumb 18.024108 44.974009 
rfemur -45.523834 -8.608668 14.978163 
rtibia 51.129942 
rfoot -1.269778 -6.739356 
rtoes 2.274271 
lfemur 8.777148 -4.250893 -34.486520 
ltibia 21.229711 
lfoot -24.986960 8.595630 
ltoes 1.519879 
213
root -7.870845 21.486984 -2.189056 -0.297074 -0.394925 7.482062
lowerback 8.633215 -0.577472 -8.221375 
upperback -1.094563 -1.635257 0.242025 
thorax -5.783551 -0.532941 5.104506 
lowerneck -13.201662 0.311993 1.726842 
upperneck 13.673966 0.487123 -2.541280 
head 6.335743 0.115326 -1.049254 
rclavicle 0.000000 0.000000 
rhumerus -31.644779 -15.009149 -78.576539 
rradius 32.492065 
rwrist -3.404351 
rhand -13.055156 -10.260636 
rfingers 0.000000 
rthumb 13.040068 -39.833043 
lclavicle 0.000000 0.000000 
lhumerus -39.219680 1.084012 87.243681 
lradius 42.060347 
lwrist -9.877002 
lhand -7.793759 15.818710 
lfingers 0.000000 
lthumb 18.107277 44.995843 
rfemur -45.013212 -8.390198 14.729021 
rtibia 48.940436 
rfoot 0.776480 -6.533369 
rtoes 2.126596 
lfemur 9.624183 -4.026500 -34.651561 
ltibia 20.949793 
lfoot -25.281061 8.557857 
ltoes 1.190945 
214
root -7.877296 21.437968 -2.036295 -0.403335 -0.354656 7.643549
lowerback 8.408342 -0.644929 -8.349087 
upperback -1.082064 -1.718330 0.210970 
thorax -5.628006 -0.577834 5.147019 
lowerneck -13.138360 0.309230 1.713298 
upperneck 13.765930 0.490252 -2.552776 
head 6.354301 0.115286 -1.050762 
rclavicle 0.000000 0.000000 
rhumerus -31.902549 -15.152384 -78.305938 
rradius 32.425966 
rwrist -3.361189 
rhand -13.021592 -10.272538 
rfingers 0.000000 
rthumb 13.072390 -39.842895 
lclavicle 0.000000 0.000000 
lhumerus -39.316329 1.066526 87.256394 
lradius 42.015799 
lwrist -9.908315 
lhand -7.699815 15.837691 
lfingers 0.000000 
lthumb 18.197624 45.006408 
rfemur -44.479740 -8.153647 14.455276 
rtibia 46.826244 
rfoot 2.773281 -6.359242 
rtoes 1.922715 
lfemur 10.417559 -3.792866 -34.807716 
ltibia 20.779373 
lfoot -25.611860 8.520258 
ltoes 0.860153 
215
root -7.884245 21.385798 -1.882440 -0.500230 -0.297913 7.803916
lowerback 8.169998 -0.718846 -8.475405 
upperback -1.073657 -1.807881 0.181651 
thorax -5.467957 -0.626240 5.190409 
lowerneck -13.070747 0.308679 1.698167 
upperneck 13.858028 0.497495 -2.568813 
head 6.372253 0.116788 -1.053078 
rclavicle 0.000000 0.000000 
rhumerus -32.171785 -15.281729 -78.031665 
rradius 32.368323 
rwrist -3.299407 
rhand -12.980673 -10.270749 
rfingers 0.000000 
rthumb 13.111802 -39.838599 
lclavicle 0.000000 0.000000 
lhumerus -39.424154 1.040371 87.276376 
lradius 41.981774 
lwrist -9.940616 
lhand -7.604744 15.845000 
lfingers 0.000000 
lthumb 18.289078 45.005250 
rfemur -43.929855 -7.898133 14.157463 
rtibia 44.798979 
rfoot 4.687744 -6.252941 
rtoes 1.702005 
lfemur 11.147049 -3.556232 -34.951905 
ltibia 20.734827 
lfoot -25.982590 8.482469 
ltoes 0.522571 
216
root -7.891806 21.330512 -1.727330 -0.585619 -0.217651 7.960139
lowerback 7.917257 -0.801221 -8.599208 
upperback -1.071441 -1.906352 0.155852 
thorax -5.304662 -0.679252 5.236096 
lowerneck -12.996531 0.310679 1.685327 
upperneck 13.952361 0.509596 -2.595393 
head 6.389910 0.119902 -1.058703 
rclavicle 0.000000 0.000000 
rhumerus -32.457745 -15.392748 -77.753302 
rradius 32.324208 
rwrist -3.228509 
rhand -12.938068 -10.255948 
rfingers 0.000000 
rthumb 13.152872 -39.821079 
lclavicle 0.000000 0.000000 
lhumerus -39.546165 1.008750 87.303956 
lradius 41.956217 
lwrist -9.976548 
lhand -7.515607 15.838519 
lfingers 0.000000 
lthumb 18.374860 44.990630 
rfemur -43.367350 -7.623747 13.836427 
rtibia 42.870482 
rfoot 6.490119 -6.251962 
rtoes 1.508998 
lfemur 11.803789 -3.325446 -35.080165 
ltibia 20.833371 
lfoot -26.395019 8.447583 
ltoes 0.153842 
217
root -7.900163 21.272469 -1.571047 -0.656524 -0.108696 8.105655
lowerback 7.652886 -0.891895 -8.715387 
upperback -1.075795 -2.013222 0.135547 
thorax -5.140203 -0.736629 5.283168 
lowerneck -12.933166 0.313641 1.678281 
upperneck 14.059933 0.524443 -2.636985 
head 6.413793 0.123272 -1.069910 
rclavicle 0.000000 0.000000 
rhumerus -32.759319 -15.482219 -77.471669 
rradius 32.298812 
rwrist -3.161540 
rhand -12.898929 -10.239138 
rfingers 0.000000 
rthumb 13.190629 -39.801812 
lclavicle 0.000000 0.000000 
lhumerus -39.672539 0.975936 87.338612 
lradius 41.929082 
lwrist -10.022998 
lhand -7.436763 15.814669 
lfingers 0.000000 
lthumb 18.450747 44.959632 
rfemur -42.797355 -7.327118 13.497870 
rtibia 41.052092 
rfoot 8.152696 -6.392533 
rtoes 1.380796 
lfemur 12.379139 -3.108795 -35.183614 
ltibia 21.087714 
lfoot -26.848474 8.414637 
ltoes -0.278968 
218
root -7.909503 21.211867 -1.413721 -0.710156 0.030555 8.232595
lowerback 7.377949 -0.991770 -8.819050 
upperback -1.094187 -2.129715 0.122654 
thorax -4.982952 -0.798432 5.331068 
lowerneck -12.857065 0.318705 1.674748 
upperneck 14.173242 0.542833 -2.685068 
head 6.437426 0.128044 -1.083468 
rclavicle 0.000000 0.000000 
rhumerus -33.089410 -15.549014 -77.185589 
rradius 32.292561 
rwrist -3.108367 
rhand -12.862548 -10.212525 
rfingers 0.000000 
rthumb 13.225646 -39.773015 
lclavicle 0.000000 0.000000 
lhumerus -39.829455 0.932245 87.381562 
lradius 41.914290 
lwrist -10.074624 
lhand -7.379682 15.771540 
lfingers 0.000000 
lthumb 18.505594 44.911283 
rfemur -42.222336 -7.000664 13.147554 
rtibia 39.351447 
rfoot 9.647860 -6.700874 
rtoes 1.350271 
lfemur 12.864431 -2.911467 -35.251223 
ltibia 21.504995 
lfoot -27.342543 8.374214 
ltoes -0.812287 
219
root -7.919809 21.148941 -1.255076 -0.743681 0.210014 8.333586
lowerback 7.095492 -1.100757 -8.904004 
upperback -1.126533 -2.255421 0.119836 
thorax -4.834616 -0.864500 5.378931 
lowerneck -12.785397 0.325715 1.675403 
upperneck 14.305559 0.564977 -2.742366 
head 6.468006 0.133960 -1.100442 
rclavicle 0.000000 0.000000 
rhumerus -33.450756 -15.575969 -76.901374 
rradius 32.323523 
rwrist -3.104670 
rhand -12.849526 -10.206059 
rfingers 0.000000 
rthumb 13.238213 -39.765730 
lclavicle 0.000000 0.000000 
lhumerus -39.988636 0.892545 87.429827 
lradius 41.896259 
lwrist -10.136730 
lhand -7.326655 15.723457 
lfingers 0.000000 
lthumb 18.556591 44.858283 
rfemur -41.641796 -6.649098 12.791671 
rtibia 37.784762 
rfoot 10.937953 -7.195585 
rtoes 1.430171 
lfemur 13.253371 -2.743807 -35.270346 
ltibia 22.096828 
lfoot -27.878370 8.305013 
ltoes -1.466034 
